<svg width="1475" height="475" viewBox="0 0 1475 475" fill="none" xmlns="http://www.w3.org/2000/svg">
<path d="M452.265 164.65H460.253V219.149H452.265C436.288 219.149 423.92 223.41 415.163 231.931C406.523 240.452 402.204 251.991 402.204 266.547V353H349.125V167.668H402.204V188.616C415.932 172.639 432.619 164.65 452.265 164.65ZM566.993 357.438C538.471 357.438 514.624 348.148 495.452 329.567C476.398 310.987 466.871 287.909 466.871 260.334C466.871 232.759 476.398 209.681 495.452 191.101C514.624 172.52 538.471 163.23 566.993 163.23C585.81 163.23 602.852 167.491 618.119 176.012C633.386 184.414 645.339 196.072 653.978 210.983C662.617 225.777 666.937 242.227 666.937 260.334C666.937 278.441 662.617 294.951 653.978 309.862C645.339 324.656 633.386 336.313 618.119 344.834C602.852 353.237 585.81 357.438 566.993 357.438ZM534.506 292.998C543.146 301.756 553.975 306.134 566.993 306.134C580.011 306.134 590.84 301.756 599.479 292.998C608.118 284.24 612.438 273.352 612.438 260.334C612.438 247.316 608.118 236.428 599.479 227.67C590.84 218.913 580.011 214.534 566.993 214.534C553.975 214.534 543.146 218.913 534.506 227.67C525.867 236.428 521.547 247.316 521.547 260.334C521.547 273.352 525.867 284.24 534.506 292.998ZM914.096 167.668H971.968L906.817 353H852.319L817.524 233.351L782.553 353H728.054L662.904 167.668H722.196L756.457 283.944L791.251 167.668H845.04L880.012 284.299L914.096 167.668Z" fill="#005655"/>
<path d="M989.592 353V91.1567H1042.67V353H989.592ZM1168.41 357.438C1139.88 357.438 1116.04 348.148 1096.86 329.567C1077.81 310.987 1068.28 287.909 1068.28 260.334C1068.28 232.759 1077.81 209.681 1096.86 191.101C1116.04 172.52 1139.88 163.23 1168.41 163.23C1187.22 163.23 1204.26 167.491 1219.53 176.012C1234.8 184.414 1246.75 196.072 1255.39 210.983C1264.03 225.777 1268.35 242.227 1268.35 260.334C1268.35 278.441 1264.03 294.951 1255.39 309.862C1246.75 324.656 1234.8 336.313 1219.53 344.834C1204.26 353.237 1187.22 357.438 1168.41 357.438ZM1135.92 292.998C1144.56 301.756 1155.39 306.134 1168.41 306.134C1181.42 306.134 1192.25 301.756 1200.89 292.998C1209.53 284.24 1213.85 273.352 1213.85 260.334C1213.85 247.316 1209.53 236.428 1200.89 227.67C1192.25 218.913 1181.42 214.534 1168.41 214.534C1155.39 214.534 1144.56 218.913 1135.92 227.67C1127.28 236.428 1122.96 247.316 1122.96 260.334C1122.96 273.352 1127.28 284.24 1135.92 292.998ZM1383.43 357.438C1354.91 357.438 1331.06 348.148 1311.89 329.567C1292.84 310.987 1283.31 287.909 1283.31 260.334C1283.31 232.759 1292.84 209.681 1311.89 191.101C1331.06 172.52 1354.91 163.23 1383.43 163.23C1401.89 163.23 1418.64 167.372 1433.67 175.657C1448.7 183.823 1460.54 195.066 1469.18 209.386L1423.02 237.434C1419.11 230.451 1413.67 224.889 1406.69 220.747C1399.71 216.605 1391.95 214.534 1383.43 214.534C1370.41 214.534 1359.59 218.913 1350.95 227.67C1342.31 236.428 1337.99 247.316 1337.99 260.334C1337.99 273.352 1342.31 284.24 1350.95 292.998C1359.59 301.756 1370.41 306.134 1383.43 306.134C1391.95 306.134 1399.71 304.063 1406.69 299.921C1413.67 295.779 1419.11 290.217 1423.02 283.234L1469.18 311.105C1460.54 325.543 1448.7 336.905 1433.67 345.189C1418.64 353.355 1401.89 357.438 1383.43 357.438Z" fill="#00C71E"/>
<path fill-rule="evenodd" clip-rule="evenodd" d="M55.103 213.326C55.103 185.502 32.5472 162.946 4.72313 162.946H3.8147e-06L0 218.049L9.72748e-05 218.049C9.72748e-05 238.104 3.95016 257.962 11.6248 276.49C19.2993 295.018 30.5482 311.854 44.729 326.034C58.9098 340.215 75.7448 351.464 94.2729 359.139C112.801 366.813 132.659 370.763 152.714 370.763C172.769 370.763 192.627 366.813 211.155 359.139C229.683 351.464 246.518 340.215 260.699 326.034C274.88 311.854 286.129 295.018 293.803 276.49L268.349 265.947L293.803 276.49C301.478 257.962 305.428 238.104 305.428 218.049H250.325C250.325 230.868 247.8 243.561 242.895 255.403C237.989 267.246 230.799 278.007 221.735 287.071C212.671 296.135 201.911 303.325 190.068 308.23C178.225 313.135 165.533 315.66 152.714 315.66C139.896 315.66 127.203 313.135 115.36 308.23C103.517 303.325 92.7567 296.135 83.6927 287.071C74.6286 278.007 67.4387 267.246 62.5333 255.403C57.6279 243.561 55.1031 230.868 55.1031 218.049H55.103V213.326ZM152.714 162.946H305.428V218.049H190.499C169.631 218.049 152.714 201.132 152.714 180.264V162.946Z" fill="#005655"/>
<path d="M73.9955 26.7627H89.7392C124.519 26.7627 152.714 54.9575 152.714 89.7375V162.946H136.97C102.19 162.946 73.9955 134.751 73.9955 99.971V26.7627Z" fill="#00C71E"/>
<path d="M209.391 26.7627H203.094C178.748 26.7627 159.011 46.4991 159.011 70.8451V114.14H165.309C189.655 114.14 209.391 94.4039 209.391 70.0579V26.7627Z" fill="#00C71E"/>
</svg>
